<svg width="23" height="20" viewBox="0 0 23 20" fill="none" xmlns="http://www.w3.org/2000/svg">
<path d="M13.1604 1.76708L13.1604 1.7671L13.1664 1.76101C13.3513 1.57288 13.6559 1.56337 13.8591 1.76007C13.9752 1.87811 14.0276 2.04486 13.9932 2.22123L13.0441 6.79687L12.7945 7.99997H14.0233H19.6733C21.1028 7.99997 22.0737 9.46461 21.5132 10.7882C21.513 10.7886 21.5128 10.789 21.5127 10.7894L18.256 18.3917C18.0917 18.763 17.7277 19 17.3333 19H8.33325C7.78554 19 7.33325 18.5477 7.33325 18V8.00997C7.33325 7.74178 7.44029 7.48714 7.62036 7.30708L13.1604 1.76708ZM3.33325 18C3.33325 18.5477 2.88097 19 2.33325 19C1.78554 19 1.33325 18.5477 1.33325 18V9.99997C1.33325 9.45225 1.78554 8.99997 2.33325 8.99997C2.88097 8.99997 3.33325 9.45225 3.33325 9.99997V18Z" fill="white" stroke="#FF3C81" stroke-width="2"/>
</svg>
