<svg width="45" height="22" viewBox="0 0 45 22" fill="none" xmlns="http://www.w3.org/2000/svg">
<path d="M9.922 2.424V0.773999H3.96L4.73 2.424H0.902V5.724H13.882V2.424H9.922ZM19.932 1.214H13.97L15.092 3.612V15.316H19.932V9.97H22.22V6.12H19.932V1.214ZM10.45 13.666C12.408 13.666 13.662 11.906 13.662 10.014C13.662 8.122 12.408 6.362 10.45 6.362H4.554C2.596 6.362 1.342 8.122 1.342 10.014C1.342 11.906 2.596 13.666 4.554 13.666H10.45ZM9.064 9.332C9.482 9.332 9.79 9.618 9.79 10.014C9.79 10.41 9.482 10.696 9.064 10.696H5.94C5.522 10.696 5.214 10.41 5.214 10.014C5.214 9.618 5.522 9.332 5.94 9.332H9.064ZM14.146 14.546H6.556L7.238 15.844L1.496 21.652H7.392L11.33 17.714L15.268 21.652H21.164L14.146 14.546ZM41.492 1.214H35.53L36.652 3.612V21.652H41.492V12.764H44.22V8.694H41.492V1.214ZM27.83 7.968V1.544H22.088L23.21 3.942V18.528C23.21 18.858 23.32 19.1 23.54 19.342L24.772 20.64C24.992 20.882 25.256 20.992 25.586 20.992H34.892V1.544H30.272V7.968H27.83ZM27.83 17.032V11.928H30.272V17.032H27.83Z" fill="white"/>
</svg>
